<svg xmlns="http://www.w3.org/2000/svg" width="1100" height="420" viewBox="0 0 1100 420" role="img" aria-labelledby="title desc">
  <title id="title">SDD Master multi AI support</title>
  <desc id="desc">SDD Master core connected to multiple coding agents.</desc>
  <rect width="1100" height="420" rx="24" fill="#0b1220"/>
  <g font-family="Segoe UI, Arial, sans-serif">
    <circle cx="550" cy="210" r="88" fill="#123047" stroke="#5eead4" stroke-width="4"/>
    <text x="491" y="204" fill="#e0f2fe" font-size="26" font-weight="800">SDD</text>
    <text x="489" y="236" fill="#b7f7e8" font-size="26" font-weight="800">Master</text>
    <g fill="#172554" stroke="#93c5fd" stroke-width="2" font-size="18" font-weight="700">
      <rect x="104" y="70" width="130" height="48" rx="12"/><text x="144" y="101" fill="#dbeafe">Codex</text>
      <rect x="310" y="42" width="130" height="48" rx="12"/><text x="346" y="73" fill="#dbeafe">Claude</text>
      <rect x="660" y="42" width="130" height="48" rx="12"/><text x="698" y="73" fill="#dbeafe">Cursor</text>
      <rect x="866" y="70" width="130" height="48" rx="12"/><text x="904" y="101" fill="#dbeafe">Gemini</text>
      <rect x="90" y="300" width="130" height="48" rx="12"/><text x="126" y="331" fill="#dbeafe">Copilot</text>
      <rect x="282" y="330" width="130" height="48" rx="12"/><text x="313" y="361" fill="#dbeafe">Windsurf</text>
      <rect x="486" y="336" width="130" height="48" rx="12"/><text x="528" y="367" fill="#dbeafe">Cline</text>
      <rect x="690" y="330" width="130" height="48" rx="12"/><text x="734" y="361" fill="#dbeafe">Roo</text>
      <rect x="882" y="300" width="130" height="48" rx="12"/><text x="925" y="331" fill="#dbeafe">Aider</text>
      <rect x="864" y="186" width="130" height="48" rx="12"/><text x="900" y="217" fill="#dbeafe">Continue</text>
    </g>
    <g stroke="#38bdf8" stroke-width="2" opacity="0.6">
      <path d="M234 94 L472 176"/><path d="M440 66 L510 134"/><path d="M660 66 L590 134"/><path d="M866 94 L628 176"/>
      <path d="M220 324 L482 248"/><path d="M412 354 L520 292"/><path d="M616 354 L578 294"/><path d="M820 354 L616 260"/><path d="M882 324 L626 248"/><path d="M864 210 L638 210"/>
    </g>
  </g>
</svg>
