<svg xmlns="http://www.w3.org/2000/svg" width="1280" height="300" viewBox="0 0 1280 300" role="img" aria-labelledby="title desc">
  <title id="title">SDD Master workflow overview</title>
  <desc id="desc">Visual workflow from discovery to delivery.</desc>
  <rect width="1280" height="300" rx="24" fill="#f8fafc"/>
  <g font-family="Segoe UI, Arial, sans-serif" font-size="15" font-weight="700">
    <g fill="#0f172a">
      <text x="40" y="58" font-size="30">Workflow Overview</text>
    </g>
    <g transform="translate(34 106)">
      <rect width="104" height="48" rx="10" fill="#dbeafe"/><text x="17" y="30" fill="#1e3a8a">Discovery</text>
      <path d="M110 24 h28" stroke="#64748b" stroke-width="3"/>
      <rect x="144" width="114" height="48" rx="10" fill="#ccfbf1"/><text x="159" y="30" fill="#115e59">Requirements</text>
      <path d="M264 24 h28" stroke="#64748b" stroke-width="3"/>
      <rect x="298" width="112" height="48" rx="10" fill="#ede9fe"/><text x="318" y="30" fill="#5b21b6">Architecture</text>
      <path d="M416 24 h28" stroke="#64748b" stroke-width="3"/>
      <rect x="450" width="72" height="48" rx="10" fill="#fef3c7"/><text x="473" y="30" fill="#92400e">Spec</text>
      <path d="M528 24 h28" stroke="#64748b" stroke-width="3"/>
      <rect x="562" width="72" height="48" rx="10" fill="#dcfce7"/><text x="583" y="30" fill="#166534">Plan</text>
      <path d="M640 24 h28" stroke="#64748b" stroke-width="3"/>
      <rect x="674" width="78" height="48" rx="10" fill="#fce7f3"/><text x="696" y="30" fill="#9d174d">Tasks</text>
      <path d="M758 24 h28" stroke="#64748b" stroke-width="3"/>
      <rect x="792" width="92" height="48" rx="10" fill="#e0f2fe"/><text x="809" y="30" fill="#075985">Tests</text>
      <path d="M890 24 h28" stroke="#64748b" stroke-width="3"/>
      <rect x="924" width="126" height="48" rx="10" fill="#fee2e2"/><text x="944" y="30" fill="#991b1b">Implementation</text>
      <path d="M1056 24 h28" stroke="#64748b" stroke-width="3"/>
      <rect x="1090" width="76" height="48" rx="10" fill="#ecfccb"/><text x="1113" y="30" fill="#3f6212">Docs</text>
    </g>
    <g transform="translate(308 198)">
      <rect width="88" height="44" rx="10" fill="#f3e8ff"/><text x="23" y="28" fill="#6b21a8">Quality</text>
      <path d="M94 22 h36" stroke="#64748b" stroke-width="3"/>
      <rect x="136" width="76" height="44" rx="10" fill="#ffe4e6"/><text x="160" y="28" fill="#9f1239">Audit</text>
      <path d="M218 22 h36" stroke="#64748b" stroke-width="3"/>
      <rect x="260" width="84" height="44" rx="10" fill="#cffafe"/><text x="282" y="28" fill="#155e75">Commit</text>
      <path d="M350 22 h36" stroke="#64748b" stroke-width="3"/>
      <rect x="392" width="90" height="44" rx="10" fill="#dcfce7"/><text x="415" y="28" fill="#166534">Delivery</text>
    </g>
  </g>
</svg>
